Coordinates
version=1
nRows=9
nColumns=24
inDegrees=yes

Units are S.I. units (second, meters, Newtons, ...)
If the header above contains a line with 'inDegrees', this indicates whether rotational values are in degrees (yes) or radians (no).

endheader
time	pelvis_tilt	pelvis_list	pelvis_rotation	pelvis_tx	pelvis_ty	pelvis_tz	hip_flexion_r	hip_adduction_r	hip_rotation_r	knee_angle_r	ankle_angle_r	subtalar_angle_r	mtp_angle_r	hip_flexion_l	hip_adduction_l	hip_rotation_l	knee_angle_l	ankle_angle_l	subtalar_angle_l	mtp_angle_l	lumbar_extension	lumbar_bending	lumbar_rotation
1.5	9.769818887015933	-4.944677282357197	-9.223332682040605	-4.438652424021217	9.64872269014448	-2.555261204935298	9.837816546274977	-6.419675161897967	-0.8458335947902826	-69.98424873774799	-4.6988054384729185	-5.728336327120823	2.1999757631108214	1.6877755428226529	-2.7372048786850125	-1.381067245960423	-23.440015967474544	-0.27486456612162735	1.3837421992359054	1.8305590378452896	-24.62342557872744	0.3949533863792336	-1.3894868482984761
1.517	9.722351687902318	-5.155614539068059	-0.4255199263892031	0.3789706278532115	5.641921265572709	4.897377785279037	3.4968830327039635	-4.654682019858574	-6.527906338934942	-70.35857813426384	-5.105159486960867	-2.270230077241237	-3.7486418706790294	-3.499054041903239	9.11056765987756	-2.9749144370688407	-12.17172347379638	2.837840096397843	-0.5063282669994071	1.0238423887961448	-11.516144995206528	1.7566906370057405	-3.7291531759311907
1.533	5.549778630648305	0.147457241031423	3.819651596991997	4.8682368919855445	2.891206323328401	0.30682400230005563	12.339057294349733	-2.760042675884587	-1.0708942920802622	-72.31602062117452	-6.4658157646590055	0.9630624231837065	1.8601326774038207	2.086339632818536	-2.1500193687734086	0.8711797975796052	-6.778602659839471	1.9117430947731475	-2.0901596150188455	6.475694509689481	-14.683122900482886	4.08017752592607	-8.826821416192097
1.55	11.522144416700463	-6.011513212491933	-7.344858574653853	-2.6204854024630513	0.8660217640532097	0.12878426961420011	16.091195149697192	-3.5514985673906097	-5.317312265103223	-73.1267105082165	-0.40493052320934264	0.11517654078446372	0.5985533660297745	7.50908795527521	4.8186659424298	2.7998118998650607	-14.255120054482267	2.363085206917804	6.13452222768131	-8.352602769673311	-22.659355021467835	-12.462872294384503	-9.907643583125378
1.567	4.5014054287705445	1.4862736158321803	-4.702971147655852	-5.4009071507356765	8.933137212180128	5.722173496762153	16.28333984163276	1.0713706961043625	-4.265860260328859	-72.38458223307647	3.826110530491134	4.258488813453029	8.650699129038683	-6.854850283092523	-5.166045244368954	-0.58816139831644	-14.958167156767232	10.269371697490632	6.750152279039634	4.961394803810533	-19.655310905994604	0.49962400182630784	-2.22041707658947
1.583	1.5527838467926065	-2.566793345563143	8.764848238760072	3.2819903889192616	-5.932319335404841	3.0534304738470524	19.338086671591395	-6.832618860569847	0.12924485056891122	-63.909430100823904	1.191238192805133	0.792610367477909	-2.6666378189431557	2.877679151812602	-2.248551012371125	-9.639392519980117	-8.586976370498077	9.294834925793147	-1.7015602158503922	-8.665201254157866	-19.501838629133026	-9.029512261767948	6.760850278273771
1.6	18.797553773405873	-2.423628570368984	2.571810560002493	-1.6471115228437991	-0.7964171214869735	-3.6229477408176884	30.535393126408508	-0.02108568437781555	-7.512315086946901	-65.61162138207828	0.40717189550505584	-4.667538313491747	5.690005661745819	-0.44829126796640884	8.06222932823375	0.987076503562078	-8.491282902445898	10.548478596654466	-3.533511890450359	4.076439001414362	-13.090012135056853	-1.964529564622605	-9.011671218685265
1.617	4.925313112357441	3.366713095030918	-2.4966336202569943	0.3197036450408269	8.182147660611031	-1.3856119995599954	25.01413597352783	0.8862716564441517	-14.173747122786494	-64.12963840024689	0.5430388736577283	-3.6460048655176585	-1.3289900005772388	-1.774096649842631	-2.5667450415982387	-2.607017330596511	-7.7983809772286765	16.54046783962217	4.480168108521313	2.7930071056111734	-10.827851984672751	0.4253082351734383	-10.400339100200673
1.633	5.326925801159312	5.538882471062521	-2.2259393972354538	1.2736046979404207	-0.9298183343663771	7.872833422570335	19.513618076885294	-6.221523315693304	1.678653259920325	-60.87097996113897	3.2577026768854616	-9.149840525868036	6.886467928247425	-0.7728486709838451	-4.419224455541987	-9.906993719667804	-7.554428559819474	13.096396438168895	-0.817690910695078	-0.16155027214747278	-17.088449719511797	0.7511331875462433	-7.594935141586773
